<svg width="105" height="98" viewBox="0 0 105 98" fill="none" xmlns="http://www.w3.org/2000/svg">
<path d="M56.9359 29.1833C54.0142 43.9984 56.696 59.2636 64.5558 72.5576V72.9327C64.7978 73.3259 65.1426 73.6607 65.5606 73.9083C65.9819 74.0781 66.4385 74.1659 66.9004 74.1659C67.3623 74.1659 67.819 74.0781 68.2402 73.9083H68.6588C69.7478 73.0462 70.8944 72.2445 72.092 71.5071C78.7909 63.2525 103.577 28.808 81.7216 1.19251C81.3299 0.671253 80.7479 0.288724 80.0754 0.110665C79.4029 -0.0673934 78.6822 -0.0296501 78.0373 0.217155C75.9439 0.967576 72.7619 3.36874 70.1661 10.3477C69.5949 12.2422 68.326 13.9083 66.5654 15.0753C62.1922 18.0264 58.8512 22.036 56.9359 26.6319C56.7923 27.4775 56.7923 28.3377 56.9359 29.1833Z" fill="#C7D2FE"/>
<path d="M11.1323 42.6907C7.3642 47.8686 11.1323 54.0973 15.5703 59.2752C19.208 63.1018 23.34 66.5276 27.8795 69.4808C39.1143 75.6303 52.3067 78.2693 65.3931 76.985C65.6797 76.5401 65.8307 76.0354 65.8307 75.5216C65.8307 75.0079 65.6797 74.5034 65.3931 74.0585C65.8143 74.2283 66.271 74.3161 66.7329 74.3161C67.1948 74.3161 67.6515 74.2283 68.0727 74.0585H68.4914C70.8444 57.9071 66.9744 41.5198 57.5219 27.6074L56.9358 26.7818C41.2772 5.16973 25.7024 0.667191 17.3288 0.967359C11.1324 0.967359 13.9794 12.1487 15.9053 18.1521C17.2037 22.4522 17.2037 26.9843 15.9053 31.2844C15.0183 35.2942 13.406 39.147 11.1323 42.6907Z" fill="#F7CAC9"/>
<path d="M0.162735 79.1613C0.868605 81.8067 2.3633 84.2304 4.48714 86.1734C6.61097 88.1164 9.28412 89.5056 12.2207 90.1925C18.2398 92.3318 24.8496 92.7512 31.145 91.3932C41.7902 88.8295 52.0519 85.1257 61.7085 80.362L63.7182 79.0113L65.4767 77.1353C65.7634 76.6904 65.9142 76.1857 65.9142 75.6719C65.9142 75.1582 65.7634 74.6535 65.4767 74.2085C65.3628 73.8932 65.161 73.6093 64.8905 73.3832L64.2206 72.8578C55.2271 65.3563 44.0001 60.3516 31.8986 58.4497C30.3089 58.3668 28.7153 58.3668 27.1257 58.4497C23.1086 58.3556 19.099 58.811 15.2352 59.8004C11.7161 60.7003 8.47742 62.3185 5.77302 64.5281C3.64245 66.4145 2.02743 68.717 1.05419 71.2555C0.0809577 73.7939 -0.22411 76.4997 0.162735 79.1613Z" fill="#C6EAF7"/>
<path d="M51.4929 97.3212C53.8375 98.2967 54.8422 89.4418 62.3784 82.3128C69.9146 75.1838 81.3028 76.6096 77.8696 71.1316C76.9485 69.7058 75.0226 70.0811 72.5105 71.5069C71.3129 72.2442 70.1663 73.046 69.0773 73.9081H68.6586C68.2374 74.0779 67.7808 74.1657 67.3189 74.1657C66.857 74.1657 66.4004 74.0779 65.9791 73.9081C66.2657 74.353 66.4166 74.8577 66.4166 75.3715C66.4166 75.8852 66.2657 76.3899 65.9791 76.8348L62.2947 80.1367L61.4573 80.9621C53.4187 88.2411 49.232 96.3456 51.4929 97.3212Z" fill="#F46D9A"/>
<path d="M96.7937 58.5995C89.5545 60.2456 83.0789 63.8955 78.2881 69.0303L96.7937 58.5995Z" fill="#F46D9A"/>
<path d="M105 70.4564C96.6239 68.8252 87.9002 69.3986 79.8793 72.1073L105 70.4564Z" fill="#F46D9A"/>
</svg>
