<svg width="92" height="95" viewBox="0 0 92 95" fill="none" xmlns="http://www.w3.org/2000/svg">
<path d="M47.7453 30.0779C48.3522 44.3357 43.9412 58.3748 35.222 69.936C34.9297 70.2924 34.5483 70.5723 34.1131 70.7494C33.7475 70.9208 33.3459 71.0099 32.939 71.0099C32.5321 71.0099 32.1306 70.9208 31.765 70.7494H31.4388C30.5916 69.7929 29.6763 68.8937 28.6994 68.0587C23.9379 59.549 6.78346 24.2586 29.6777 0.856868C30.0931 0.42902 30.6426 0.142533 31.2428 0.0409246C31.843 -0.0606841 32.4613 0.0281381 33.0043 0.293747C34.8306 1.29489 37.2439 3.92285 38.5484 10.8057C38.8547 12.626 39.7437 14.3098 41.0922 15.6237C44.399 18.8962 46.6817 22.9938 47.6801 27.4498C47.8214 28.3193 47.8433 29.2029 47.7453 30.0779Z" fill="#B8E2C8"/>
<path d="M86.2284 48.0358C88.8374 53.3544 84.9239 58.7981 80.0972 63.1156C76.3838 66.2835 72.289 69.0143 67.8999 71.2498C57.2084 75.7668 45.2578 76.7571 33.9173 74.0656C33.6775 73.6432 33.5519 73.1699 33.5519 72.689C33.5519 72.2081 33.6775 71.7348 33.9173 71.3124C33.5517 71.4838 33.1501 71.5729 32.7431 71.5729C32.3362 71.5729 31.9347 71.4838 31.5691 71.3124H31.243C31.3088 55.8394 36.8772 40.8513 47.0276 28.8263L47.6799 28.0754C64.3125 9.30395 78.6621 7.11398 85.9674 8.36542C91.3812 9.24142 87.4676 19.2528 84.9238 24.6965C83.0669 28.6118 82.3459 32.9352 82.8366 37.2108C83.3624 40.9687 84.5073 44.6226 86.2284 48.0358Z" fill="#FF9CBA"/>
<path d="M90.9901 83.7644C89.9875 86.1551 88.3315 88.2421 86.1965 89.8058C84.0614 91.3695 81.5262 92.352 78.8581 92.6496C73.2961 93.9786 67.4421 93.629 62.095 91.6485C53.0847 88.0161 44.5653 83.3519 36.7221 77.7576C36.1327 77.3049 35.587 76.8022 35.0915 76.2557L33.8522 74.316C33.6124 73.8937 33.4868 73.4204 33.4868 72.9394C33.4868 72.4585 33.6124 71.9852 33.8522 71.5629C34.0574 71.3031 34.2988 71.0716 34.5697 70.8747L35.1568 70.4366C44.1102 64.4675 54.6569 61.0805 65.5519 60.6755C66.942 60.5899 68.3363 60.5899 69.7264 60.6755C73.2789 61.091 76.75 61.9972 80.0321 63.366C82.9852 64.6111 85.5974 66.4958 87.6635 68.8723C89.4133 70.9215 90.628 73.3417 91.2065 75.9319C91.7851 78.522 91.7109 81.2073 90.9901 83.7644Z" fill="#C6EAF7"/>
<path d="M43.3748 94.7769C41.2224 95.4026 41.5485 86.9554 35.8739 79.5094C30.1992 72.0634 19.9588 72.0008 23.7419 66.9951C24.7203 65.7436 26.3509 66.3067 28.3729 67.9336C29.3497 68.7686 30.2651 69.6676 31.1123 70.6241H31.4385C31.8041 70.7955 32.2057 70.8846 32.6126 70.8846C33.0195 70.8846 33.421 70.7955 33.7866 70.6241C33.5468 71.0465 33.4213 71.5198 33.4213 72.0007C33.4213 72.4816 33.5468 72.9549 33.7866 73.3773L36.5914 76.8813L37.1784 77.7574C42.9835 85.9543 45.5925 94.1511 43.3748 94.7769Z" fill="#FEF6FF"/>
<path d="M8.74005 53.1041C14.903 55.4895 20.1124 59.6978 23.6115 65.1178L8.74005 53.1041Z" fill="#FEF6FF"/>
<path d="M0 63.2409C7.68717 62.5919 15.4027 64.1375 22.1767 67.6834L0 63.2409Z" fill="#FEF6FF"/>
</svg>
